<?xml version="1.0" encoding="UTF-8" standalone="no"?>
<!DOCTYPE svg PUBLIC "-//W3C//DTD SVG 1.1//EN"
 "http://www.w3.org/Graphics/SVG/1.1/DTD/svg11.dtd">
<!-- Generated by graphviz version 2.26.3 (20100126.1600)
 -->
<!-- Title: G Pages: 1 -->
<svg width="1442pt" height="440pt"
 viewBox="0.00 0.00 1442.42 439.78" xmlns="http://www.w3.org/2000/svg" xmlns:xlink="http://www.w3.org/1999/xlink">
<g id="graph1" class="graph" transform="scale(1 1) rotate(0) translate(4 435.784)">
<title>G</title>
<polygon fill="white" stroke="white" points="-4,5 -4,-435.784 1439.42,-435.784 1439.42,5 -4,5"/>
<!-- 1 -->
<g id="node1" class="node"><title>1</title>
<ellipse fill="none" stroke="black" cx="882.327" cy="-281.372" rx="142.128" ry="18.3848"/>
<text text-anchor="middle" x="882.327" y="-277.772" font-family="Times Roman,serif" font-size="14.00">n1_length31_coverage116</text>
</g>
<!-- 2 -->
<g id="node2" class="node"><title>2</title>
<ellipse fill="none" stroke="black" cx="1009.76" cy="-155.777" rx="142.128" ry="18.3848"/>
<text text-anchor="middle" x="1009.76" y="-152.177" font-family="Times Roman,serif" font-size="14.00">n2_length34_coverage248</text>
</g>
<!-- 1&#45;&gt;2 -->
<g id="edge2" class="edge"><title>1&#45;&gt;2</title>
<path fill="none" stroke="black" d="M901.13,-262.84C922.964,-241.321 959.115,-205.69 983.662,-181.498"/>
<polygon fill="black" stroke="black" points="986.213,-183.898 990.878,-174.385 981.299,-178.912 986.213,-183.898"/>
</g>
<!-- 5 -->
<g id="node5" class="node"><title>5</title>
<ellipse fill="none" stroke="black" cx="713.699" cy="-223.765" rx="135.765" ry="18.3848"/>
<text text-anchor="middle" x="713.699" y="-220.165" font-family="Times Roman,serif" font-size="14.00">n5_length9_coverage233</text>
</g>
<!-- 1&#45;&gt;5 -->
<g id="edge4" class="edge"><title>1&#45;&gt;5</title>
<path fill="none" stroke="blue" d="M831.275,-263.932C813.197,-257.756 792.69,-250.75 773.921,-244.338"/>
<polygon fill="blue" stroke="blue" points="774.881,-240.967 764.287,-241.047 772.618,-247.592 774.881,-240.967"/>
</g>
<!-- 3 -->
<g id="node3" class="node"><title>3</title>
<ellipse fill="none" stroke="black" cx="1125.45" cy="-19.5" rx="142.128" ry="18.3848"/>
<text text-anchor="middle" x="1125.45" y="-15.9" font-family="Times Roman,serif" font-size="14.00">n3_length31_coverage124</text>
</g>
<!-- 2&#45;&gt;3 -->
<g id="edge6" class="edge"><title>2&#45;&gt;3</title>
<path fill="none" stroke="black" d="M1025.6,-137.114C1045.68,-113.464 1080.4,-72.5604 1103.15,-45.7656"/>
<polygon fill="black" stroke="black" points="1105.99,-47.8262 1109.8,-37.9376 1100.66,-43.296 1105.99,-47.8262"/>
</g>
<!-- 10 -->
<g id="node10" class="node"><title>10</title>
<ellipse fill="none" stroke="black" cx="1174.7" cy="-222.824" rx="147.992" ry="18.3848"/>
<text text-anchor="middle" x="1174.7" y="-219.224" font-family="Times Roman,serif" font-size="14.00">n10_length31_coverage121</text>
</g>
<!-- 2&#45;&gt;10 -->
<g id="edge8" class="edge"><title>2&#45;&gt;10</title>
<path fill="none" stroke="black" d="M1053.53,-173.569C1074.39,-182.051 1099.54,-192.271 1121.5,-201.198"/>
<polygon fill="black" stroke="black" points="1120.43,-204.543 1131.01,-205.066 1123.07,-198.058 1120.43,-204.543"/>
</g>
<!-- 11 -->
<g id="node11" class="node"><title>11</title>
<ellipse fill="none" stroke="black" cx="840.885" cy="-98.7225" rx="147.992" ry="18.3848"/>
<text text-anchor="middle" x="840.885" y="-95.1225" font-family="Times Roman,serif" font-size="14.00">n11_length31_coverage141</text>
</g>
<!-- 2&#45;&gt;11 -->
<g id="edge10" class="edge"><title>2&#45;&gt;11</title>
<path fill="none" stroke="blue" d="M958.633,-138.504C940.776,-132.471 920.553,-125.639 901.968,-119.36"/>
<polygon fill="blue" stroke="blue" points="903.014,-116.019 892.42,-116.134 900.774,-122.651 903.014,-116.019"/>
</g>
<!-- 4 -->
<g id="node4" class="node"><title>4</title>
<ellipse fill="none" stroke="black" cx="1284.92" cy="-88.0657" rx="147.992" ry="18.3848"/>
<text text-anchor="middle" x="1284.92" y="-84.4657" font-family="Times Roman,serif" font-size="14.00">n4_length247_coverage144</text>
</g>
<!-- 3&#45;&gt;4 -->
<g id="edge12" class="edge"><title>3&#45;&gt;4</title>
<path fill="none" stroke="black" d="M1166.93,-37.3359C1190.47,-47.454 1219.82,-60.0771 1243.37,-70.2002"/>
</g>
<!-- 4&#45;&gt;10 -->
<g id="edge14" class="edge"><title>4&#45;&gt;10</title>
<path fill="none" stroke="black" d="M1269.83,-106.521C1248.84,-132.183 1211.05,-178.387 1189.97,-204.16"/>
</g>
<!-- 6 -->
<g id="node6" class="node"><title>6</title>
<ellipse fill="none" stroke="black" cx="583.629" cy="-345.554" rx="142.128" ry="18.3848"/>
<text text-anchor="middle" x="583.629" y="-341.954" font-family="Times Roman,serif" font-size="14.00">n6_length33_coverage106</text>
</g>
<!-- 5&#45;&gt;6 -->
<g id="edge18" class="edge"><title>5&#45;&gt;6</title>
<path fill="none" stroke="black" d="M693.944,-242.262C671.789,-263.007 635.715,-296.784 610.886,-320.032"/>
<polygon fill="black" stroke="black" points="608.477,-317.493 603.57,-326.883 613.261,-322.603 608.477,-317.493"/>
</g>
<!-- 13 -->
<g id="node13" class="node"><title>13</title>
<ellipse fill="none" stroke="black" cx="546.368" cy="-162.046" rx="147.992" ry="18.3848"/>
<text text-anchor="middle" x="546.368" y="-158.446" font-family="Times Roman,serif" font-size="14.00">n13_length33_coverage102</text>
</g>
<!-- 5&#45;&gt;13 -->
<g id="edge16" class="edge"><title>5&#45;&gt;13</title>
<path fill="none" stroke="black" d="M666.196,-206.244C643.587,-197.904 616.614,-187.956 593.989,-179.611"/>
</g>
<!-- 7 -->
<g id="node7" class="node"><title>7</title>
<ellipse fill="none" stroke="black" cx="415.81" cy="-283.443" rx="142.128" ry="18.3848"/>
<text text-anchor="middle" x="415.81" y="-279.843" font-family="Times Roman,serif" font-size="14.00">n7_length11_coverage176</text>
</g>
<!-- 6&#45;&gt;7 -->
<g id="edge22" class="edge"><title>6&#45;&gt;7</title>
<path fill="none" stroke="black" d="M536.435,-328.087C516.684,-320.777 493.552,-312.216 472.857,-304.557"/>
<polygon fill="black" stroke="black" points="473.824,-301.183 463.231,-300.994 471.394,-307.747 473.824,-301.183"/>
</g>
<!-- 8 -->
<g id="node8" class="node"><title>8</title>
<ellipse fill="none" stroke="black" cx="254.298" cy="-206.815" rx="135.765" ry="18.3848"/>
<text text-anchor="middle" x="254.298" y="-203.215" font-family="Times Roman,serif" font-size="14.00">n8_length59_coverage77</text>
</g>
<!-- 7&#45;&gt;8 -->
<g id="edge26" class="edge"><title>7&#45;&gt;8</title>
<path fill="none" stroke="black" d="M377.943,-265.478C352.023,-253.18 317.798,-236.942 291.928,-224.669"/>
</g>
<!-- 12 -->
<g id="node12" class="node"><title>12</title>
<ellipse fill="none" stroke="black" cx="292.91" cy="-412.284" rx="142.128" ry="18.3848"/>
<text text-anchor="middle" x="292.91" y="-408.684" font-family="Times Roman,serif" font-size="14.00">n12_length59_coverage70</text>
</g>
<!-- 7&#45;&gt;12 -->
<g id="edge24" class="edge"><title>7&#45;&gt;12</title>
<path fill="none" stroke="black" d="M398.202,-301.903C374.839,-326.396 333.833,-369.383 310.486,-393.859"/>
</g>
<!-- 7&#45;&gt;13 -->
<g id="edge28" class="edge"><title>7&#45;&gt;13</title>
<path fill="none" stroke="blue" d="M435.639,-265.006C457.878,-244.328 494.086,-210.659 519.008,-187.486"/>
<polygon fill="blue" stroke="blue" points="521.412,-190.03 526.352,-180.657 516.646,-184.903 521.412,-190.03"/>
</g>
<!-- 9 -->
<g id="node9" class="node"><title>9</title>
<ellipse fill="none" stroke="black" cx="137" cy="-334.796" rx="135.765" ry="18.3848"/>
<text text-anchor="middle" x="137" y="-331.196" font-family="Times Roman,serif" font-size="14.00">n9_length85_coverage62</text>
</g>
<!-- 9&#45;&gt;8 -->
<g id="edge30" class="edge"><title>9&#45;&gt;8</title>
<path fill="none" stroke="black" d="M154.056,-316.187C174.123,-294.292 207.575,-257.794 230.264,-233.039"/>
<polygon fill="black" stroke="black" points="233.045,-235.184 237.221,-225.447 227.884,-230.455 233.045,-235.184"/>
</g>
<!-- 9&#45;&gt;12 -->
<g id="edge32" class="edge"><title>9&#45;&gt;12</title>
<path fill="none" stroke="black" d="M173.161,-352.768C195.317,-363.78 223.869,-377.971 247.536,-389.733"/>
<polygon fill="black" stroke="black" points="246.163,-392.959 256.676,-394.276 249.279,-386.691 246.163,-392.959"/>
</g>
<!-- 11&#45;&gt;5 -->
<g id="edge20" class="edge"><title>11&#45;&gt;5</title>
<path fill="none" stroke="black" d="M822.118,-117.173C800.326,-138.598 764.244,-174.071 739.745,-198.157"/>
<polygon fill="black" stroke="black" points="737.22,-195.732 732.543,-205.238 742.127,-200.724 737.22,-195.732"/>
</g>
</g>
</svg>
