<?xml version="1.0" encoding="UTF-8" standalone="no"?>
<!DOCTYPE svg PUBLIC "-//W3C//DTD SVG 1.1//EN"
 "http://www.w3.org/Graphics/SVG/1.1/DTD/svg11.dtd">
<!-- Generated by graphviz version 2.38.0 (20140413.2041)
 -->
<!-- Title: G Pages: 1 -->
<svg width="1094pt" height="355pt"
 viewBox="0.00 0.00 1094.28 354.93" xmlns="http://www.w3.org/2000/svg" xmlns:xlink="http://www.w3.org/1999/xlink">
<g id="graph0" class="graph" transform="scale(1 1) rotate(0) translate(620.065 145.026)">
<title>G</title>
<polygon fill="white" stroke="none" points="-620.065,209.906 -620.065,-145.026 474.213,-145.026 474.213,209.906 -620.065,209.906"/>
<!-- 1 -->
<g id="node1" class="node"><title>1</title>
<ellipse fill="none" stroke="red" cx="-124.059" cy="14.1459" rx="492.013" ry="18"/>
<text text-anchor="middle" x="-124.059" y="17.8459" font-family="Times,serif" font-size="14.00">n1_length250_coverage76 random_sequence_length_300_then_A_then_anothers random_sequence_length_300_then_G_then_anothers</text>
</g>
<!-- 3 -->
<g id="node2" class="node"><title>3</title>
<ellipse fill="none" stroke="black" cx="172.389" cy="-79.0262" rx="99.3824" ry="18"/>
<text text-anchor="middle" x="172.389" y="-75.3262" font-family="Times,serif" font-size="14.00">n3_length51_coverage13</text>
</g>
<!-- 1&#45;&gt;3 -->
<g id="edge1" class="edge"><title>1&#45;&gt;3</title>
<path fill="none" stroke="black" d="M-57.3294,-6.82678C-6.2604,-22.8776 63.5369,-44.8146 112.753,-60.2829"/>
<polygon fill="black" stroke="black" points="-56.3113,-3.47803 -66.9007,-3.81858 -58.4102,-10.156 -56.3113,-3.47803"/>
<polygon fill="black" stroke="black" points="111.721,-63.6272 122.31,-63.2867 113.819,-56.9493 111.721,-63.6272"/>
</g>
<!-- 4 -->
<g id="node3" class="node"><title>4</title>
<ellipse fill="none" stroke="black" cx="-25.8864" cy="187.906" rx="99.3824" ry="18"/>
<text text-anchor="middle" x="-25.8864" y="191.606" font-family="Times,serif" font-size="14.00">n4_length51_coverage14</text>
</g>
<!-- 1&#45;&gt;4 -->
<g id="edge2" class="edge"><title>1&#45;&gt;4</title>
<path fill="none" stroke="black" d="M-108.684,41.3583C-90.2404,74.0028 -59.5133,128.388 -41.1286,160.928"/>
<polygon fill="black" stroke="black" points="-111.866,42.8411 -113.738,32.4129 -105.772,39.3978 -111.866,42.8411"/>
<polygon fill="black" stroke="black" points="-37.9406,159.456 -36.0687,169.884 -44.0351,162.899 -37.9406,159.456"/>
</g>
<!-- 2 -->
<g id="node4" class="node"><title>2</title>
<ellipse fill="none" stroke="black" cx="-22.4434" cy="-123.026" rx="492.813" ry="18"/>
<text text-anchor="middle" x="-22.4434" y="-119.326" font-family="Times,serif" font-size="14.00">n2_length250_coverage79 random_sequence_length_300_then_A_then_anothere random_sequence_length_300_then_G_then_anothere</text>
</g>
<!-- 1&#45;&gt;2 -->
<g id="edge5" class="edge"><title>1&#45;&gt;2</title>
<path fill="none" stroke="grey" stroke-dasharray="5,2" d="M-110.565,-4.06945C-91.1297,-30.3055 -55.4593,-78.4575 -35.993,-104.735"/>
</g>
<!-- 3&#45;&gt;2 -->
<g id="edge3" class="edge"><title>3&#45;&gt;2</title>
<path fill="none" stroke="black" d="M109.939,-93.1296C96.1021,-96.2544 81.1805,-99.6242 66.5165,-102.936"/>
<polygon fill="black" stroke="black" points="65.4054,-99.5986 56.4221,-105.216 66.9475,-106.427 65.4054,-99.5986"/>
</g>
<!-- 4&#45;&gt;2 -->
<g id="edge4" class="edge"><title>4&#45;&gt;2</title>
<path fill="none" stroke="black" d="M-25.6864,169.845C-25.1124,118.003 -23.456,-31.5794 -22.7588,-94.5495"/>
<polygon fill="black" stroke="black" points="-26.2546,-94.9547 -22.644,-104.915 -19.255,-94.8772 -26.2546,-94.9547"/>
</g>
</g>
</svg>
